<?xml version="1.0" encoding="UTF-8"?>
<svg version="1.1" xmlns="http://www.w3.org/2000/svg" width="512" height="512">
<path d="M0 0 C2.66015625 0.33203125 2.66015625 0.33203125 4.4765625 2.0703125 C5.05277344 2.91980469 5.62898438 3.76929688 6.22265625 4.64453125 C6.91359375 5.65644531 7.60453125 6.66835937 8.31640625 7.7109375 C12.04590492 13.42854091 15.67701052 19.20871334 19.296875 24.99609375 C22.97598714 30.86019522 26.74944836 36.66134952 30.53515625 42.45703125 C31.15334229 43.40416992 31.77152832 44.35130859 32.40844727 45.32714844 C33.00455811 46.23883789 33.60066895 47.15052734 34.21484375 48.08984375 C34.7881543 48.96930664 35.36146484 49.84876953 35.95214844 50.75488281 C37.09207288 52.47487173 38.25442898 54.18019975 39.43847656 55.87011719 C40.2636377 57.05395996 40.2636377 57.05395996 41.10546875 58.26171875 C41.59805176 58.95249512 42.09063477 59.64327148 42.59814453 60.35498047 C43.66015625 62.33203125 43.66015625 62.33203125 43.66015625 66.33203125 C42.66015625 69.33203125 42.66015625 69.33203125 40.66015625 70.33203125 C37.95504179 70.43040206 35.27568189 70.46832434 32.5703125 70.46142578 C31.3164827 70.46405426 31.3164827 70.46405426 30.037323 70.46673584 C27.26574649 70.47114822 24.49423344 70.46821851 21.72265625 70.46484375 C19.80216459 70.46551697 17.88167301 70.46648714 15.96118164 70.46774292 C11.93277171 70.46921906 7.90438392 70.46706801 3.87597656 70.46240234 C-1.29609439 70.45670511 -6.46811345 70.45998456 -11.6401825 70.46597481 C-15.6068969 70.46958267 -19.57359895 70.46844079 -23.54031372 70.46584702 C-25.44776414 70.46517837 -27.35521567 70.466004 -29.26266479 70.46832657 C-31.92514027 70.47085676 -34.58753087 70.46700728 -37.25 70.46142578 C-38.44074631 70.46446213 -38.44074631 70.46446213 -39.6555481 70.46755981 C-45.11131547 70.44629539 -45.11131547 70.44629539 -47.33984375 69.33203125 C-48.25390625 67.21875 -48.25390625 67.21875 -48.33984375 64.33203125 C-46.90213767 61.72656813 -45.47267183 59.51723264 -43.71484375 57.14453125 C-43.21702393 56.4474707 -42.7192041 55.75041016 -42.20629883 55.03222656 C-40.59851511 52.78806483 -38.97025442 50.55979274 -37.33984375 48.33203125 C-36.29307207 46.88367813 -35.24748997 45.43446449 -34.203125 43.984375 C-32.60668111 41.76939549 -31.00837029 39.55592134 -29.40332031 37.34716797 C-24.60158311 30.73449799 -19.9170329 24.0430305 -15.2722168 17.31933594 C-3.59876568 0.51067626 -3.59876568 0.51067626 0 0 Z M-10.33984375 32.33203125 C-10.41309543 35.19470692 -10.4322258 38.03275025 -10.40234375 40.89453125 C-10.39783203 41.70083984 -10.39332031 42.50714844 -10.38867188 43.33789062 C-10.37684893 45.33596881 -10.35891289 47.33400908 -10.33984375 49.33203125 C-7.36942926 50.8172385 -4.64219928 50.50261345 -1.33984375 50.51953125 C-0.08171875 50.53371094 1.17640625 50.54789063 2.47265625 50.5625 C5.75370224 50.67466672 5.75370224 50.67466672 7.66015625 48.33203125 C7.83186528 45.60505902 7.89261305 42.99296657 7.84765625 40.26953125 C7.84668945 39.15094727 7.84668945 39.15094727 7.84570312 38.00976562 C8.14838156 34.37185492 8.14838156 34.37185492 6.66015625 31.33203125 C3.98284245 31.23221911 1.3371145 31.1932325 -1.33984375 31.20703125 C-2.09007812 31.20316406 -2.8403125 31.19929688 -3.61328125 31.1953125 C-7.27590492 30.85527584 -7.27590492 30.85527584 -10.33984375 32.33203125 Z " fill="#22B5FF" transform="translate(306.33984375,200.66796875)"/>
<path d="M0 0 C0.83920486 0.0028299 1.67840973 0.00565979 2.54304504 0.00857544 C5.22285228 0.01976865 7.90232506 0.04487149 10.58203125 0.0703125 C12.39908371 0.08034342 14.21614142 0.08946907 16.03320312 0.09765625 C20.487108 0.11970516 24.94076292 0.15422899 29.39453125 0.1953125 C30.67891774 4.58554429 30.67891774 4.58554429 29.42578125 7.27246094 C28.92046875 7.9430957 28.41515625 8.61373047 27.89453125 9.3046875 C27.33999268 10.05564697 26.7854541 10.80660645 26.21411133 11.58032227 C25.6136499 12.36076904 25.01318848 13.14121582 24.39453125 13.9453125 C23.4967395 15.14595337 23.4967395 15.14595337 22.58081055 16.37084961 C20.86595703 18.65662302 19.13223448 20.92689253 17.39453125 23.1953125 C16.22857422 24.75185547 16.22857422 24.75185547 15.0390625 26.33984375 C10.72938171 32.02788727 10.72938171 32.02788727 8.39453125 33.1953125 C5.55023768 33.28222251 2.73073949 33.31085052 -0.11328125 33.29296875 C-1.37421097 33.29084633 -1.37421097 33.29084633 -2.66061401 33.28868103 C-5.3506015 33.28307487 -8.04050634 33.27052136 -10.73046875 33.2578125 C-12.55208213 33.25279829 -14.37369682 33.24823525 -16.1953125 33.24414062 C-20.66539652 33.23310344 -25.13541861 33.2158347 -29.60546875 33.1953125 C-30.26546875 31.8753125 -30.92546875 30.5553125 -31.60546875 29.1953125 C-11.20944733 -0.14185057 -11.20944733 -0.14185057 0 0 Z " fill="#22B5FF" transform="translate(236.60546875,237.8046875)"/>
<path d="M0 0 C1.26092972 0.00212242 1.26092972 0.00212242 2.54733276 0.00428772 C5.23732025 0.00989388 7.92722509 0.02244739 10.6171875 0.03515625 C12.43880088 0.04017046 14.26041557 0.0447335 16.08203125 0.04882812 C20.55211527 0.05986531 25.02213736 0.07713405 29.4921875 0.09765625 C30.71386719 4.70654297 30.71386719 4.70654297 28.71875 8.2265625 C27.86698887 9.38261999 26.9987347 10.52664821 26.1171875 11.66015625 C25.43849609 12.56846191 25.43849609 12.56846191 24.74609375 13.49511719 C23.80623129 14.7497943 22.85984997 15.99961294 21.90722656 17.24462891 C20.55098403 19.02066079 19.21710361 20.81104464 17.890625 22.609375 C11.94907489 30.64076886 11.94907489 30.64076886 9.4921875 33.09765625 C6.64678608 33.29755852 3.90080966 33.37742601 1.0546875 33.36328125 C0.21881104 33.3651947 -0.61706543 33.36710815 -1.47827148 33.36907959 C-3.24691061 33.37044161 -5.01555973 33.36674401 -6.78417969 33.35839844 C-9.49697244 33.347699 -12.20910294 33.35829301 -14.921875 33.37109375 C-16.6380223 33.36977216 -18.35416919 33.36720977 -20.0703125 33.36328125 C-20.88491943 33.36732971 -21.69952637 33.37137817 -22.53881836 33.37554932 C-28.27789322 33.32757553 -28.27789322 33.32757553 -30.5078125 31.09765625 C-30.4505621 25.86878651 -26.95311631 22.27205269 -23.8828125 18.34765625 C-23.34027832 17.64116943 -22.79774414 16.93468262 -22.23876953 16.20678711 C-21.16037763 14.80468467 -20.07826868 13.40543207 -18.9921875 12.00927734 C-17.7250191 10.3773812 -16.47407409 8.73290914 -15.2265625 7.0859375 C-10.32036686 0.630964 -8.17606243 -0.05140695 0 0 Z " fill="#22B5FF" transform="translate(189.5078125,237.90234375)"/>
<path d="M0 0 C1.26092972 0.00212242 1.26092972 0.00212242 2.54733276 0.00428772 C5.23732025 0.00989388 7.92722509 0.02244739 10.6171875 0.03515625 C12.43880088 0.04017046 14.26041557 0.0447335 16.08203125 0.04882812 C20.55211527 0.05986531 25.02213736 0.07713405 29.4921875 0.09765625 C30.75836941 4.51973685 30.75836941 4.51973685 29.58349609 7.07055664 C29.10734863 7.68922607 28.63120117 8.30789551 28.140625 8.9453125 C27.61855469 9.63302734 27.09648437 10.32074219 26.55859375 11.02929688 C26.00042969 11.73248047 25.44226563 12.43566406 24.8671875 13.16015625 C24.33222656 13.86720703 23.79726562 14.57425781 23.24609375 15.30273438 C20.31072182 19.10586224 17.58863414 22.49240551 13.4921875 25.09765625 C10.5918313 25.45257238 8.08793253 25.59039208 5.19921875 25.5234375 C4.01835945 25.51850533 4.01835945 25.51850533 2.81364441 25.51347351 C1.15700965 25.50308531 -0.49958966 25.48319078 -2.15600586 25.4543457 C-4.69730528 25.41012157 -7.23765956 25.39288411 -9.77929688 25.38085938 C-11.3906387 25.36744062 -13.00196887 25.35251911 -14.61328125 25.3359375 C-15.75545357 25.3248571 -15.75545357 25.3248571 -16.92070007 25.31355286 C-22.27098392 25.21607054 -22.27098392 25.21607054 -24.5078125 24.09765625 C-25.03003034 20.4146462 -24.52570121 19.12524037 -22.4609375 15.94140625 C-21.5720678 14.8170919 -20.67054914 13.70268291 -19.7578125 12.59765625 C-19.314375 12.04207031 -18.8709375 11.48648438 -18.4140625 10.9140625 C-17.5381589 9.819183 -16.65610474 8.72919189 -15.76757812 7.64453125 C-14.59052917 6.19922462 -13.44624507 4.7274061 -12.3046875 3.25390625 C-8.86764596 -0.87054359 -4.99553268 -0.03140939 0 0 Z " fill="#22B5FF" transform="translate(208.5078125,210.90234375)"/>
<path d="M0 0 C0.81559387 0.0028299 1.63118774 0.00565979 2.47149658 0.00857544 C5.06969028 0.01974692 7.66753595 0.04484575 10.265625 0.0703125 C12.02994293 0.08034623 13.79426628 0.08947139 15.55859375 0.09765625 C19.87773773 0.11967631 24.19662241 0.15418517 28.515625 0.1953125 C29.78616017 4.58651906 29.78616017 4.58651906 28.59106445 7.27587891 C28.10855225 7.94280762 27.62604004 8.60973633 27.12890625 9.296875 C26.3390332 10.40289062 26.3390332 10.40289062 25.53320312 11.53125 C24.97052734 12.28664062 24.40785156 13.04203125 23.828125 13.8203125 C23.28478516 14.5834375 22.74144531 15.3465625 22.18164062 16.1328125 C16.99346387 23.28459182 16.99346387 23.28459182 13.515625 25.1953125 C10.63543651 25.47611339 7.97845696 25.59245765 5.1015625 25.55859375 C3.88528671 25.55934151 3.88528671 25.55934151 2.6444397 25.56010437 C0.93480979 25.55776844 -0.77482384 25.54806829 -2.484375 25.53149414 C-5.10708158 25.50783319 -7.72877583 25.510945 -10.3515625 25.51757812 C-12.01302692 25.51200341 -13.67448704 25.50489484 -15.3359375 25.49609375 C-16.12239655 25.49700516 -16.90885559 25.49791656 -17.71914673 25.49885559 C-23.2533225 25.426365 -23.2533225 25.426365 -25.484375 23.1953125 C-24.92233796 18.26865637 -21.45850414 14.49199129 -18.671875 10.5703125 C-18.13755859 9.79429687 -17.60324219 9.01828125 -17.05273438 8.21875 C-16.52873047 7.47625 -16.00472656 6.73375 -15.46484375 5.96875 C-14.75171021 4.95433838 -14.75171021 4.95433838 -14.02416992 3.91943359 C-10.08493933 -0.49135544 -5.58123391 -0.07304907 0 0 Z " fill="#22B5FF" transform="translate(255.484375,210.8046875)"/>
<path d="M0 0 C1.88589771 0.06026578 3.77198056 0.115006 5.65820312 0.1640625 C10.25591042 0.29560612 14.84465297 0.50216737 19.4375 0.75 C18.8090881 6.11891771 18.03181602 8.97367918 14.5 13.125 C13.78972656 13.97835937 13.07945312 14.83171875 12.34765625 15.7109375 C9.65117916 18.58938543 8.88484969 18.73190776 4.84570312 18.89526367 C3.30342508 18.90866605 1.76108476 18.91580365 0.21875 18.91796875 C-1.00177063 18.92296135 -1.00177063 18.92296135 -2.24694824 18.92805481 C-3.9685001 18.93312075 -5.69006179 18.93546324 -7.41162109 18.93530273 C-10.05192123 18.93749123 -12.69180497 18.95565567 -15.33203125 18.97460938 C-17.00260273 18.97754291 -18.67317621 18.97952797 -20.34375 18.98046875 C-21.13648315 18.98765427 -21.92921631 18.99483978 -22.74597168 19.00224304 C-28.33367318 18.97882682 -28.33367318 18.97882682 -30.5625 16.75 C-30.01230862 11.13283809 -26.33041639 5.72545366 -22.31817627 1.90209961 C-16.20869186 -2.1070305 -6.92759842 -0.38503475 0 0 Z " fill="#22B5FF" transform="translate(279.5625,190.25)"/>
<path d="M0 0 C1.29422379 0.00212242 1.29422379 0.00212242 2.61459351 0.00428772 C5.3759098 0.00989437 8.13714562 0.02244798 10.8984375 0.03515625 C12.768228 0.04017039 14.63801976 0.04473345 16.5078125 0.04882812 C21.09638527 0.05986596 25.68489773 0.07713505 30.2734375 0.09765625 C30.89746094 1.89770508 30.89746094 1.89770508 31.2734375 4.09765625 C29.77325906 6.51625101 28.30155491 8.59165895 26.5234375 10.78515625 C26.06710938 11.37876953 25.61078125 11.97238281 25.140625 12.58398438 C21.68818092 16.95940844 21.68818092 16.95940844 18.2734375 18.09765625 C15.56550596 18.20651506 12.88406142 18.26168893 10.17578125 18.265625 C9.38571182 18.2689534 8.5956424 18.2722818 7.78163147 18.27571106 C6.11313458 18.28076976 4.4446276 18.28311971 2.77612305 18.28295898 C0.21711738 18.28515096 -2.34146092 18.30333245 -4.90039062 18.32226562 C-6.52083186 18.32519861 -8.14127514 18.32718404 -9.76171875 18.328125 C-10.52944107 18.33531052 -11.29716339 18.34249603 -12.08815002 18.34989929 C-17.49773059 18.32648816 -17.49773059 18.32648816 -19.7265625 16.09765625 C-19.44170831 12.18738513 -17.05293319 9.47641149 -14.7890625 6.41015625 C-14.07878906 5.43691406 -13.36851562 4.46367187 -12.63671875 3.4609375 C-9.10725822 -0.90577747 -5.22686969 -0.03201093 0 0 Z " fill="#22B5FF" transform="translate(222.7265625,190.90234375)"/>
<path d="M0 0 C4.20665799 0.60829474 4.58541907 0.87784852 7.109375 3.984375 C8.16655767 5.44959309 9.19986633 6.9322783 10.2109375 8.4296875 C10.74332031 9.17605469 11.27570313 9.92242187 11.82421875 10.69140625 C15.49928977 15.88139205 15.49928977 15.88139205 16.8359375 18.5546875 C17.1659375 12.6146875 17.4959375 6.6746875 17.8359375 0.5546875 C20.1459375 0.5546875 22.4559375 0.5546875 24.8359375 0.5546875 C25.8359375 1.5546875 25.8359375 1.5546875 25.94946289 4.69750977 C25.94930383 6.08871447 25.94361256 7.47992511 25.93359375 8.87109375 C25.9321788 9.60214828 25.93076385 10.33320282 25.92930603 11.08641052 C25.92369158 13.43004382 25.91113672 15.77358289 25.8984375 18.1171875 C25.89342436 19.70247258 25.88886113 21.28775916 25.88476562 22.87304688 C25.87371747 26.7669636 25.85644322 30.66080955 25.8359375 34.5546875 C18.13037109 34.79736328 18.13037109 34.79736328 15.48046875 32.61328125 C14.87589844 31.74832031 14.27132813 30.88335937 13.6484375 29.9921875 C12.99488281 29.08597656 12.34132813 28.17976563 11.66796875 27.24609375 C11.06339844 26.35792969 10.45882813 25.46976562 9.8359375 24.5546875 C8.83723199 23.17874698 7.83744659 21.80358871 6.8359375 20.4296875 C6.1759375 19.4809375 5.5159375 18.5321875 4.8359375 17.5546875 C4.84753906 18.69808594 4.85914063 19.84148437 4.87109375 21.01953125 C4.88047038 22.51041504 4.88957071 24.00130059 4.8984375 25.4921875 C4.90681641 26.24693359 4.91519531 27.00167969 4.92382812 27.77929688 C4.93246191 29.70463063 4.88818083 31.63004331 4.8359375 33.5546875 C3.8359375 34.5546875 3.8359375 34.5546875 1.98828125 34.65234375 C-0.0625 34.61979167 -2.11328125 34.58723958 -4.1640625 34.5546875 C-4.18871538 29.87329496 -4.20689989 25.19193991 -4.21899414 20.51049805 C-4.22403407 18.91674136 -4.230866 17.32298931 -4.23950195 15.72924805 C-4.25158249 13.44318497 -4.25729405 11.15718283 -4.26171875 8.87109375 C-4.26688004 8.15442032 -4.27204132 7.43774689 -4.27735901 6.69935608 C-4.27755513 4.98405078 -4.22598257 3.26887484 -4.1640625 1.5546875 C-3.1640625 0.5546875 -3.1640625 0.5546875 0 0 Z " fill="#22B5FF" transform="translate(250.1640625,287.4453125)"/>
<path d="M0 0 C4.12593192 2.87855716 7.06537651 6.00862953 8.6875 10.875 C9.44663493 17.58792178 9.16650936 22.74290229 5.09765625 28.28515625 C1.40746797 32.44556243 -2.5177122 33.51149162 -7.90625 33.93359375 C-12.74990327 33.81564765 -17.28685105 32.68843811 -20.953125 29.40625 C-25.57651927 23.98571879 -25.65493664 20.01906644 -25.59375 13.08203125 C-25.11320465 7.60247943 -22.68604193 5.11453784 -18.75 1.5625 C-13.18735089 -2.28856477 -6.24876225 -2.12222114 0 0 Z M-15.3125 9.875 C-17.63786063 13.36304095 -17.64707898 14.77640754 -17.3125 18.875 C-16.10543121 22.21765205 -15.39193151 22.82204566 -12.3125 24.875 C-8.29214268 25.32170637 -6.01628189 25.25749016 -2.4375 23.3125 C0.35355308 20.11099794 0.6875 18.09394271 0.6875 13.875 C-0.57011824 10.89643049 -1.57780675 9.37269543 -4.25 7.5625 C-8.89733461 6.01338846 -11.53682139 7.19228099 -15.3125 9.875 Z " fill="#22B5FF" transform="translate(230.3125,289.125)"/>
<path d="M0 0 C1.02996094 -0.00128906 2.05992187 -0.00257813 3.12109375 -0.00390625 C4.74724609 0.00189453 4.74724609 0.00189453 6.40625 0.0078125 C7.49035156 0.00394531 8.57445312 0.00007813 9.69140625 -0.00390625 C10.72136719 -0.00261719 11.75132812 -0.00132812 12.8125 0 C14.24045898 0.00169189 14.24045898 0.00169189 15.69726562 0.00341797 C17.90625 0.1328125 17.90625 0.1328125 18.90625 1.1328125 C19.03125 4.1328125 19.03125 4.1328125 18.90625 7.1328125 C17.90625 8.1328125 17.90625 8.1328125 14.52734375 8.23046875 C13.13277923 8.22379619 11.73823257 8.21183782 10.34375 8.1953125 C9.63283203 8.19080078 8.92191406 8.18628906 8.18945312 8.18164062 C6.42834987 8.16982114 4.66728964 8.15188513 2.90625 8.1328125 C2.90625 9.7828125 2.90625 11.4328125 2.90625 13.1328125 C3.90527344 13.12121094 4.90429688 13.10960937 5.93359375 13.09765625 C7.22394531 13.08863281 8.51429688 13.07960938 9.84375 13.0703125 C11.13152344 13.05871094 12.41929687 13.04710937 13.74609375 13.03515625 C16.90625 13.1328125 16.90625 13.1328125 17.90625 14.1328125 C18.03125 17.1328125 18.03125 17.1328125 17.90625 20.1328125 C16.90625 21.1328125 16.90625 21.1328125 13.74609375 21.23046875 C12.45832031 21.21886719 11.17054688 21.20726562 9.84375 21.1953125 C8.55339844 21.18628906 7.26304687 21.17726563 5.93359375 21.16796875 C4.93457031 21.15636719 3.93554688 21.14476562 2.90625 21.1328125 C2.90625 22.7828125 2.90625 24.4328125 2.90625 26.1328125 C4.51306641 26.11541016 4.51306641 26.11541016 6.15234375 26.09765625 C7.54947743 26.08827951 8.94661299 26.07917919 10.34375 26.0703125 C11.05080078 26.06193359 11.75785156 26.05355469 12.48632812 26.04492188 C14.29318559 26.03627662 16.10012603 26.08061239 17.90625 26.1328125 C18.90625 27.1328125 18.90625 27.1328125 18.96875 30.6953125 C18.948125 31.8296875 18.9275 32.9640625 18.90625 34.1328125 C14.92709841 34.16168234 10.94797347 34.17956656 6.96875 34.1953125 C5.26428711 34.20788086 5.26428711 34.20788086 3.52539062 34.22070312 C2.44580078 34.22392578 1.36621094 34.22714844 0.25390625 34.23046875 C-1.24644165 34.23832397 -1.24644165 34.23832397 -2.77709961 34.24633789 C-5.09375 34.1328125 -5.09375 34.1328125 -6.09375 33.1328125 C-6.1945312 30.76882782 -6.23348215 28.43469939 -6.2265625 26.0703125 C-6.22751923 25.36382568 -6.22847595 24.65733887 -6.22946167 23.92944336 C-6.23014333 22.43310457 -6.22829005 20.93676283 -6.22412109 19.44042969 C-6.21877257 17.14251093 -6.22406651 14.84478764 -6.23046875 12.546875 C-6.22980797 11.09635373 -6.2285268 9.64583259 -6.2265625 8.1953125 C-6.22858673 7.5036499 -6.23061096 6.8119873 -6.23269653 6.09936523 C-6.2035983 0.21575816 -5.77339872 0.00684052 0 0 Z " fill="#22B5FF" transform="translate(148.09375,287.8671875)"/>
<path d="M0 0 C0.9583374 0.00523682 1.9166748 0.01047363 2.90405273 0.01586914 C4.45576172 0.02070313 4.45576172 0.02070313 6.03881836 0.02563477 C7.12743164 0.03401367 8.21604492 0.04239258 9.33764648 0.05102539 C10.97636719 0.05779297 10.97636719 0.05779297 12.64819336 0.06469727 C15.35723144 0.07652713 18.06616248 0.09300996 20.77514648 0.11352539 C20.77514648 2.75352539 20.77514648 5.39352539 20.77514648 8.11352539 C17.48995173 9.20859031 15.03851233 9.21313148 11.58764648 9.17602539 C9.95762695 9.16249023 9.95762695 9.16249023 8.29467773 9.14868164 C7.46323242 9.13708008 6.63178711 9.12547852 5.77514648 9.11352539 C5.44514648 10.43352539 5.11514648 11.75352539 4.77514648 13.11352539 C9.72514648 13.11352539 14.67514648 13.11352539 19.77514648 13.11352539 C19.77514648 15.75352539 19.77514648 18.39352539 19.77514648 21.11352539 C15.15514648 21.11352539 10.53514648 21.11352539 5.77514648 21.11352539 C5.77514648 22.76352539 5.77514648 24.41352539 5.77514648 26.11352539 C10.72514648 26.11352539 15.67514648 26.11352539 20.77514648 26.11352539 C20.77514648 28.75352539 20.77514648 31.39352539 20.77514648 34.11352539 C16.96266222 34.14239775 13.15020579 34.16028031 9.33764648 34.17602539 C8.2490332 34.1844043 7.16041992 34.1927832 6.03881836 34.20141602 C5.0043457 34.20463867 3.96987305 34.20786133 2.90405273 34.21118164 C1.94571533 34.21641846 0.98737793 34.22165527 0 34.22705078 C-2.22485352 34.11352539 -2.22485352 34.11352539 -3.22485352 33.11352539 C-3.32563472 30.74954071 -3.36458567 28.41541228 -3.35766602 26.05102539 C-3.35862274 25.34453857 -3.35957947 24.63805176 -3.36056519 23.91015625 C-3.36124684 22.41381746 -3.35939356 20.91747572 -3.35522461 19.42114258 C-3.34987609 17.12322382 -3.35517002 14.82550053 -3.36157227 12.52758789 C-3.36091148 11.07706662 -3.35963031 9.62654548 -3.35766602 8.17602539 C-3.35969025 7.48436279 -3.36171448 6.7927002 -3.36380005 6.08007812 C-3.33457164 0.17014988 -3.33457164 0.17014988 0 0 Z " fill="#22B5FF" transform="translate(287.224853515625,287.886474609375)"/>
<path d="M0 0 C1.27230469 0.00902344 2.54460937 0.01804687 3.85546875 0.02734375 C5.31919922 0.04474609 5.31919922 0.04474609 6.8125 0.0625 C6.8125 2.7025 6.8125 5.3425 6.8125 8.0625 C5.96945312 8.11148437 5.12640625 8.16046875 4.2578125 8.2109375 C3.16210938 8.28570312 2.06640625 8.36046875 0.9375 8.4375 C-0.69832031 8.54191406 -0.69832031 8.54191406 -2.3671875 8.6484375 C-5.31796474 8.79503491 -5.31796474 8.79503491 -7.1875 11.0625 C-6.36765625 11.30484375 -5.5478125 11.5471875 -4.703125 11.796875 C-3.62546875 12.13203125 -2.5478125 12.4671875 -1.4375 12.8125 C-0.37015625 13.13734375 0.6971875 13.4621875 1.796875 13.796875 C4.98159173 15.13346596 6.62399996 16.42191544 8.8125 19.0625 C9.94376788 22.13308425 9.84303189 23.89627084 9.25 27.125 C7.3602876 30.98658621 5.60818386 32.05553751 1.8125 34.0625 C-1.17011534 34.51864825 -4.05445172 34.44505806 -7.0625 34.3125 C-7.84625 34.29445313 -8.63 34.27640625 -9.4375 34.2578125 C-11.35470189 34.21105148 -13.27126715 34.13932003 -15.1875 34.0625 C-15.1875 31.4225 -15.1875 28.7825 -15.1875 26.0625 C-14.11628906 26.01351563 -13.04507812 25.96453125 -11.94140625 25.9140625 C-10.54424361 25.83904706 -9.1471095 25.7634987 -7.75 25.6875 C-7.04294922 25.6565625 -6.33589844 25.625625 -5.60742188 25.59375 C-3.79510812 25.48969371 -1.98932012 25.28330108 -0.1875 25.0625 C0.1425 24.4025 0.4725 23.7425 0.8125 23.0625 C-0.29158203 22.82466797 -0.29158203 22.82466797 -1.41796875 22.58203125 C-12.0495025 20.04001327 -12.0495025 20.04001327 -15.1875 15.0625 C-15.87048822 11.90583175 -15.912551 9.21390278 -15.1875 6.0625 C-10.71510866 0.2604788 -7.02121383 -0.06441481 0 0 Z " fill="#22B5FF" transform="translate(330.1875,287.9375)"/>
<path d="M0 0 C0.85464844 -0.01417969 1.70929688 -0.02835937 2.58984375 -0.04296875 C5.20159303 0.20046444 6.81750652 0.8696732 9.0625 2.1875 C9.0625 4.8275 9.0625 7.4675 9.0625 10.1875 C7.85013672 10.00960938 7.85013672 10.00960938 6.61328125 9.828125 C0.05740415 8.95273193 0.05740415 8.95273193 -6.1875 10.625 C-8.28950135 13.70293055 -8.61473519 15.61062664 -8.34765625 19.28125 C-8.00248883 21.38387342 -8.00248883 21.38387342 -6.4375 23.6875 C-2.11189245 26.28286453 2.29831669 25.48153055 7.0625 24.6875 C8.0525 24.44 8.0525 24.44 9.0625 24.1875 C9.0625 26.8275 9.0625 29.4675 9.0625 32.1875 C3.44386803 35.17613402 -0.7275363 35.85331143 -6.9375 34.1875 C-12.22044713 31.39650906 -16.0235914 27.9292258 -17.9375 22.1875 C-18.71245324 15.74649524 -17.84246706 10.46577352 -13.9375 5.1875 C-9.38366083 1.56301576 -5.77522678 0.04342276 0 0 Z " fill="#22B5FF" transform="translate(189.9375,287.8125)"/>
<path d="M0 0 C1.1653125 -0.00128906 2.330625 -0.00257813 3.53125 -0.00390625 C4.7584375 -0.00003906 5.985625 0.00382812 7.25 0.0078125 C9.09078125 0.00201172 9.09078125 0.00201172 10.96875 -0.00390625 C12.71671875 -0.00197266 12.71671875 -0.00197266 14.5 0 C15.57765625 0.00112793 16.6553125 0.00225586 17.765625 0.00341797 C20.25 0.1328125 20.25 0.1328125 21.25 1.1328125 C21.375 4.6328125 21.375 4.6328125 21.25 8.1328125 C20.92 8.4628125 20.59 8.7928125 20.25 9.1328125 C17.28 9.1328125 14.31 9.1328125 11.25 9.1328125 C11.25 17.3828125 11.25 25.6328125 11.25 34.1328125 C8.61 34.1328125 5.97 34.1328125 3.25 34.1328125 C3.25 25.8828125 3.25 17.6328125 3.25 9.1328125 C0.28 9.1328125 -2.69 9.1328125 -5.75 9.1328125 C-6.75 8.1328125 -6.75 8.1328125 -6.875 4.6328125 C-6.6756668 -0.94851712 -5.08381882 0.00532098 0 0 Z " fill="#22B5FF" transform="translate(349.75,287.8671875)"/>
</svg>
